<?xml version="1.0" encoding="utf-8"?>
<!-- Generator: Adobe Illustrator 15.1.0, SVG Export Plug-In . SVG Version: 6.00 Build 0)  -->
<!DOCTYPE svg PUBLIC "-//W3C//DTD SVG 1.1//EN" "http://www.w3.org/Graphics/SVG/1.1/DTD/svg11.dtd">
<svg version="1.1" id="Layer_1" xmlns="http://www.w3.org/2000/svg" xmlns:xlink="http://www.w3.org/1999/xlink" x="0px" y="0px"
	 width="74.815px" height="74.814px" viewBox="0 0 74.815 74.814" enable-background="new 0 0 74.815 74.814" xml:space="preserve">
<g opacity="0.8">
	<g>
		<defs>
			<rect id="SVGID_1_" x="2.025" y="2.023" width="70.766" height="70.767"/>
		</defs>
		<clipPath id="SVGID_2_">
			<use xlink:href="#SVGID_1_"  overflow="visible"/>
		</clipPath>
		<g clip-path="url(#SVGID_2_)">
			<defs>
				<path id="SVGID_3_" d="M66.719,37.406c8.094-8.092,8.094-21.219,0-29.312C58.625,0,45.499,0,37.407,8.094
					C29.311,0,16.192,0,8.098,8.094C0.002,16.189,0,29.312,8.096,37.406c-8.096,8.096-8.094,21.219,0,29.313
					c8.092,8.094,21.215,8.096,29.311,0c8.094,8.094,21.219,8.096,29.314,0C74.815,58.625,74.813,45.5,66.719,37.406 M49.145,46.201
					c-0.045,2.24-1.896,4.018-4.139,3.973c-2.236-0.045-4.02-1.891-3.979-4.131c0.045-2.244,1.9-4.021,4.139-3.977
					C47.405,42.107,49.186,43.957,49.145,46.201 M57.28,38.512c-0.041,2.242-1.895,4.019-4.131,3.978
					c-2.242-0.045-4.021-1.891-3.979-4.135c0.043-2.236,1.893-4.021,4.137-3.98C55.543,34.422,57.327,36.271,57.28,38.512
					 M36.907,42.047c-2.239-0.045-4.018-1.895-3.971-4.133c0.039-2.24,1.889-4.023,4.129-3.979c2.238,0.043,4.023,1.895,3.977,4.135
					C40.999,40.307,39.145,42.09,36.907,42.047 M49.331,30.101c-0.044,2.241-1.898,4.022-4.133,3.979
					c-2.234-0.045-4.023-1.898-3.979-4.133c0.045-2.244,1.896-4.023,4.135-3.978C47.59,26.01,49.375,27.863,49.331,30.101
					 M33.121,21.816c0.045-2.24,1.891-4.021,4.131-3.978c2.24,0.047,4.021,1.896,3.977,4.135c-0.041,2.238-1.895,4.021-4.133,3.974
					C34.858,25.904,33.077,24.053,33.121,21.816 M24.852,29.627c0.047-2.242,1.894-4.022,4.137-3.979
					c2.236,0.045,4.023,1.895,3.978,4.137c-0.047,2.238-1.896,4.018-4.138,3.975C26.59,33.719,24.809,31.867,24.852,29.627
					 M16.563,37.594c0.047-2.237,1.896-4.02,4.137-3.977c2.24,0.045,4.019,1.893,3.976,4.137c-0.041,2.238-1.89,4.018-4.137,3.975
					C18.303,41.684,16.522,39.83,16.563,37.594 M24.666,45.727c0.041-2.246,1.891-4.021,4.135-3.98
					c2.24,0.047,4.02,1.895,3.979,4.137c-0.047,2.238-1.897,4.018-4.139,3.973C26.399,49.813,24.621,47.963,24.666,45.727
					 M32.616,54.131c0.043-2.234,1.892-4.014,4.134-3.973c2.238,0.043,4.021,1.896,3.977,4.133
					c-0.045,2.242-1.896,4.023-4.133,3.977C34.352,58.223,32.575,56.377,32.616,54.131"/>
			</defs>
			<clipPath id="SVGID_4_"  >
				<use xlink:href="#SVGID_3_"  overflow="visible"  />
			</clipPath>
			
				<linearGradient id="SVGID_5_" gradientUnits="userSpaceOnUse" x1="-85.355" y1="121.6719" x2="-84.3563" y2="121.6719" gradientTransform="matrix(-9.200000e-006 -209.4988 -209.4988 9.200000e-006 25527.5254 -17776.8223)">
				<stop  offset="0" style="stop-color:#242B3D"/>
				<stop  offset="0.1432" style="stop-color:#242B3D"/>
				<stop  offset="0.3954" style="stop-color:#595D6D"/>
				<stop  offset="0.6818" style="stop-color:#A3A4AF"/>
				<stop  offset="0.8914" style="stop-color:#DEDEE2"/>
				<stop  offset="1" style="stop-color:#FFFFFF"/>
			</linearGradient>
			<rect clip-path="url(#SVGID_4_)" fill="url(#SVGID_5_)" width="74.815" height="74.814"/>
		</g>
	</g>
</g>
</svg>
