<svg xmlns="http://www.w3.org/2000/svg" width="75" height="75" viewBox="0 0 74.8 74.8"><style>.a{stop-color:#242B3D;}</style><g opacity="0.8"><defs><rect x="2" y="2" width="70.8" height="70.8"/></defs><clipPath><use xlink:href="#SVGID_1_"/></clipPath><g clip-path="url(#SVGID_2_)"><defs><path d="M66.7 37.4c8.1-8.1 8.1-21.2 0-29.3C58.6 0 45.5 0 37.4 8.1 29.3 0 16.2 0 8.1 8.1 0 16.2 0 29.3 8.1 37.4c-8.1 8.1-8.1 21.2 0 29.3 8.1 8.1 21.2 8.1 29.3 0 8.1 8.1 21.2 8.1 29.3 0C74.8 58.6 74.8 45.5 66.7 37.4M49.1 46.2c0 2.2-1.9 4-4.1 4 -2.2 0-4-1.9-4-4.1 0-2.2 1.9-4 4.1-4C47.4 42.1 49.2 44 49.1 46.2M57.3 38.5c0 2.2-1.9 4-4.1 4 -2.2 0-4-1.9-4-4.1 0-2.2 1.9-4 4.1-4C55.5 34.4 57.3 36.3 57.3 38.5M36.9 42c-2.2 0-4-1.9-4-4.1 0-2.2 1.9-4 4.1-4 2.2 0 4 1.9 4 4.1C41 40.3 39.1 42.1 36.9 42M49.3 30.1c0 2.2-1.9 4-4.1 4 -2.2 0-4-1.9-4-4.1 0-2.2 1.9-4 4.1-4C47.6 26 49.4 27.9 49.3 30.1M33.1 21.8c0-2.2 1.9-4 4.1-4 2.2 0 4 1.9 4 4.1 0 2.2-1.9 4-4.1 4C34.9 25.9 33.1 24.1 33.1 21.8M24.9 29.6c0-2.2 1.9-4 4.1-4 2.2 0 4 1.9 4 4.1 0 2.2-1.9 4-4.1 4C26.6 33.7 24.8 31.9 24.9 29.6M16.6 37.6c0-2.2 1.9-4 4.1-4 2.2 0 4 1.9 4 4.1 0 2.2-1.9 4-4.1 4C18.3 41.7 16.5 39.8 16.6 37.6M24.7 45.7c0-2.2 1.9-4 4.1-4 2.2 0 4 1.9 4 4.1 0 2.2-1.9 4-4.1 4C26.4 49.8 24.6 48 24.7 45.7M32.6 54.1c0-2.2 1.9-4 4.1-4 2.2 0 4 1.9 4 4.1 0 2.2-1.9 4-4.1 4C34.4 58.2 32.6 56.4 32.6 54.1"/></defs><clipPath><use xlink:href="#SVGID_3_"/></clipPath><linearGradient gradientUnits="userSpaceOnUse" x1="-85.4" y1="121.7" x2="-84.4" y2="121.7" gradientTransform="matrix(-9.200000e-006 -209.4988 -209.4988 9.200000e-006 25527.5254 -17776.8223)"><stop offset="0" class="a"/><stop offset="0.1432" class="a"/><stop offset="0.3954" stop-color="#595D6D"/><stop offset="0.6818" stop-color="#A3A4AF"/><stop offset="0.8914" stop-color="#DEDEE2"/><stop offset="1" stop-color="#FFF"/></linearGradient><rect width="74.8" height="74.8" style="clip-path:url(#SVGID_4_);fill:url(#SVGID_5_)"/></g></g></svg>